<svg xmlns="http://www.w3.org/2000/svg" width="492px" height="422px" xmlns:xlink="http://www.w3.org/1999/xlink" version="1.1"><defs/><g transform="translate(0.5,0.5)"><image x="186" y="2" width="128" height="128" xlink:href="https://cdn1.iconfinder.com/data/icons/DarkGlass_Reworked/128x128/apps/package_system.png" pointer-events="none"/><image x="2" y="92" width="128" height="128" xlink:href="https://cdn1.iconfinder.com/data/icons/DarkGlass_Reworked/128x128/apps/package_system.png" pointer-events="none"/><image x="362" y="102" width="128" height="128" xlink:href="https://cdn1.iconfinder.com/data/icons/DarkGlass_Reworked/128x128/apps/package_system.png" pointer-events="none"/><image x="296" y="292" width="128" height="128" xlink:href="https://cdn1.iconfinder.com/data/icons/DarkGlass_Reworked/128x128/apps/package_system.png" pointer-events="none"/><image x="58" y="282" width="128" height="128" xlink:href="https://cdn1.iconfinder.com/data/icons/DarkGlass_Reworked/128x128/apps/package_system.png" pointer-events="none"/><image x="206" y="185" width="70" height="70" xlink:href="https://cdn2.iconfinder.com/data/icons/humano2/128x128/apps/gnome-modem-monitor-applet.png" pointer-events="none"/><path d="M 241 185 L 245 130 M 248 130 L 245 185" fill="none" stroke="#000000" stroke-miterlimit="10" pointer-events="none"/><path d="M 181 281 L 207 254 M 209 256 L 184 283" fill="none" stroke="#000000" stroke-miterlimit="10" pointer-events="none"/><path d="M 205 209 L 129 181 M 131 178 L 207 206" fill="none" stroke="#000000" stroke-miterlimit="10" pointer-events="none"/><path d="M 276 208 L 362 183 M 362 186 L 276 211" fill="none" stroke="#000000" stroke-miterlimit="10" pointer-events="none"/><path d="M 303 293 L 270 256 M 273 254 L 305 291" fill="none" stroke="#000000" stroke-miterlimit="10" pointer-events="none"/></g></svg>